<?xml version="1.0" encoding="utf-8" standalone="no"?>
<!DOCTYPE svg PUBLIC "-//W3C//DTD SVG 1.1//EN"
  "http://www.w3.org/Graphics/SVG/1.1/DTD/svg11.dtd">
<!-- Created with matplotlib (https://matplotlib.org/) -->
<svg height="1440pt" version="1.1" viewBox="0 0 1440 1440" width="1440pt" xmlns="http://www.w3.org/2000/svg" xmlns:xlink="http://www.w3.org/1999/xlink">
 <defs>
  <style type="text/css">
*{stroke-linecap:butt;stroke-linejoin:round;}
  </style>
 </defs>
 <g id="figure_1">
  <g id="patch_1">
   <path d="M 0 1440 
L 1440 1440 
L 1440 0 
L 0 0 
z
" style="fill:#ffffff;"/>
  </g>
  <g id="axes_1">
   <g id="patch_2">
    <path d="M 1172.88 716.4 
C 1172.88 650.927445 1158.094351 586.292328 1129.629459 527.331279 
C 1101.164567 468.370229 1059.748602 416.59155 1008.480711 375.869826 
L 738 716.4 
L 1172.88 716.4 
z
" style="fill:#1f77b4;"/>
   </g>
   <g id="patch_3">
    <path d="M 1008.480711 375.869826 
C 1004.999709 373.104891 1001.476515 370.393493 997.912372 367.73659 
C 994.348229 365.079688 990.743557 362.477592 987.099625 359.93122 
L 738 716.4 
L 1008.480711 375.869826 
z
" style="fill:#ff7f0e;"/>
   </g>
   <g id="patch_4">
    <path d="M 987.099625 359.93122 
C 981.431129 355.970087 975.668956 352.144727 969.818022 348.458403 
C 963.967088 344.772078 958.029057 341.225839 952.008996 337.822711 
L 738 716.4 
L 987.099625 359.93122 
z
" style="fill:#2ca02c;"/>
   </g>
   <g id="patch_5">
    <path d="M 952.008996 337.822711 
C 947.709052 335.391961 943.368007 333.034647 938.987751 330.751795 
C 934.607495 328.468942 930.188663 326.260883 925.733179 324.128579 
L 738 716.4 
L 952.008996 337.822711 
z
" style="fill:#d62728;"/>
   </g>
   <g id="patch_6">
    <path d="M 925.733179 324.128579 
C 919.940953 321.356537 914.088041 318.713125 908.178747 316.200289 
C 902.269453 313.687453 896.305228 311.305809 890.290459 309.057109 
L 738 716.4 
L 925.733179 324.128579 
z
" style="fill:#9467bd;"/>
   </g>
   <g id="patch_7">
    <path d="M 890.290459 309.057109 
C 883.350247 306.462421 876.344858 304.045524 869.281151 301.808787 
C 862.217444 299.57205 855.097727 297.516203 847.928974 295.643259 
L 738 716.4 
L 890.290459 309.057109 
z
" style="fill:#8c564b;"/>
   </g>
   <g id="patch_8">
    <path d="M 847.928974 295.643259 
C 835.979895 292.521384 823.903251 289.909939 811.731886 287.816025 
C 799.560522 285.722112 787.305482 284.147631 775.000098 283.096865 
L 738 716.4 
L 847.928974 295.643259 
z
" style="fill:#e377c2;"/>
   </g>
   <g id="patch_9">
    <path d="M 775.000098 283.096865 
C 731.610732 279.391812 687.909927 282.224962 645.362157 291.501372 
C 602.814386 300.777781 561.900297 316.392658 523.990975 337.822727 
L 738 716.4 
L 775.000098 283.096865 
z
" style="fill:#7f7f7f;"/>
   </g>
   <g id="patch_10">
    <path d="M 523.990975 337.822727 
C 516.250658 342.198314 508.646354 346.810258 501.188788 351.652054 
C 493.731222 356.49385 486.423902 361.563221 479.277132 366.853019 
L 738 716.4 
L 523.990975 337.822727 
z
" style="fill:#bcbd22;"/>
   </g>
   <g id="patch_11">
    <path d="M 479.277132 366.853019 
C 466.569613 376.258695 454.384448 386.350336 442.775917 397.082987 
C 431.167386 407.815637 420.152752 419.173337 409.781084 431.10549 
L 738 716.4 
L 479.277132 366.853019 
z
" style="fill:#17becf;"/>
   </g>
   <g id="patch_12">
    <path d="M 409.781084 431.10549 
C 391.621404 451.997411 375.497866 474.575552 361.630071 498.5324 
C 347.762276 522.489248 336.213471 547.715544 327.140949 573.867708 
L 738 716.4 
L 409.781084 431.10549 
z
" style="fill:#1f77b4;"/>
   </g>
   <g id="patch_13">
    <path d="M 327.140949 573.867708 
C 319.366063 596.279347 313.437968 619.289619 309.416024 642.668121 
C 305.39408 666.046624 303.291754 689.715065 303.130098 713.436454 
L 738 716.4 
L 327.140949 573.867708 
z
" style="fill:#ff7f0e;"/>
   </g>
   <g id="patch_14">
    <path d="M 303.130098 713.436454 
C 302.728181 772.413576 314.328163 830.860698 337.222766 885.214167 
C 360.117369 939.567636 393.831628 988.69985 436.309908 1029.615106 
L 738 716.4 
L 303.130098 713.436454 
z
" style="fill:#2ca02c;"/>
   </g>
   <g id="patch_15">
    <path d="M 436.309908 1029.615106 
C 448.052627 1040.925742 460.42213 1051.567067 473.359819 1061.488669 
C 486.297508 1071.41027 499.782921 1080.596457 513.752174 1089.003713 
L 738 716.4 
L 436.309908 1029.615106 
z
" style="fill:#d62728;"/>
   </g>
   <g id="patch_16">
    <path d="M 513.752174 1089.003713 
C 579.726833 1128.709903 655.078632 1150.190155 732.07302 1151.239609 
C 809.067408 1152.289063 884.976669 1132.87054 952.009029 1094.977271 
C 1019.041389 1057.084002 1074.822063 1002.058449 1113.625392 935.54876 
C 1152.428722 869.039071 1172.880005 793.401514 1172.88 716.399975 
L 738 716.4 
L 513.752174 1089.003713 
z
" style="fill:#9467bd;"/>
   </g>
   <g id="matplotlib.axis_1"/>
   <g id="matplotlib.axis_2">
    <g id="text_1">
     <!-- num_refer -->
     <defs>
      <path d="M 54.890625 33.015625 
L 54.890625 0 
L 45.90625 0 
L 45.90625 32.71875 
Q 45.90625 40.484375 42.875 44.328125 
Q 39.84375 48.1875 33.796875 48.1875 
Q 26.515625 48.1875 22.3125 43.546875 
Q 18.109375 38.921875 18.109375 30.90625 
L 18.109375 0 
L 9.078125 0 
L 9.078125 54.6875 
L 18.109375 54.6875 
L 18.109375 46.1875 
Q 21.34375 51.125 25.703125 53.5625 
Q 30.078125 56 35.796875 56 
Q 45.21875 56 50.046875 50.171875 
Q 54.890625 44.34375 54.890625 33.015625 
z
" id="DejaVuSans-110"/>
      <path d="M 8.5 21.578125 
L 8.5 54.6875 
L 17.484375 54.6875 
L 17.484375 21.921875 
Q 17.484375 14.15625 20.5 10.265625 
Q 23.53125 6.390625 29.59375 6.390625 
Q 36.859375 6.390625 41.078125 11.03125 
Q 45.3125 15.671875 45.3125 23.6875 
L 45.3125 54.6875 
L 54.296875 54.6875 
L 54.296875 0 
L 45.3125 0 
L 45.3125 8.40625 
Q 42.046875 3.421875 37.71875 1 
Q 33.40625 -1.421875 27.6875 -1.421875 
Q 18.265625 -1.421875 13.375 4.4375 
Q 8.5 10.296875 8.5 21.578125 
z
M 31.109375 56 
z
" id="DejaVuSans-117"/>
      <path d="M 52 44.1875 
Q 55.375 50.25 60.0625 53.125 
Q 64.75 56 71.09375 56 
Q 79.640625 56 84.28125 50.015625 
Q 88.921875 44.046875 88.921875 33.015625 
L 88.921875 0 
L 79.890625 0 
L 79.890625 32.71875 
Q 79.890625 40.578125 77.09375 44.375 
Q 74.3125 48.1875 68.609375 48.1875 
Q 61.625 48.1875 57.5625 43.546875 
Q 53.515625 38.921875 53.515625 30.90625 
L 53.515625 0 
L 44.484375 0 
L 44.484375 32.71875 
Q 44.484375 40.625 41.703125 44.40625 
Q 38.921875 48.1875 33.109375 48.1875 
Q 26.21875 48.1875 22.15625 43.53125 
Q 18.109375 38.875 18.109375 30.90625 
L 18.109375 0 
L 9.078125 0 
L 9.078125 54.6875 
L 18.109375 54.6875 
L 18.109375 46.1875 
Q 21.1875 51.21875 25.484375 53.609375 
Q 29.78125 56 35.6875 56 
Q 41.65625 56 45.828125 52.96875 
Q 50 49.953125 52 44.1875 
z
" id="DejaVuSans-109"/>
      <path d="M 50.984375 -16.609375 
L 50.984375 -23.578125 
L -0.984375 -23.578125 
L -0.984375 -16.609375 
z
" id="DejaVuSans-95"/>
      <path d="M 41.109375 46.296875 
Q 39.59375 47.171875 37.8125 47.578125 
Q 36.03125 48 33.890625 48 
Q 26.265625 48 22.1875 43.046875 
Q 18.109375 38.09375 18.109375 28.8125 
L 18.109375 0 
L 9.078125 0 
L 9.078125 54.6875 
L 18.109375 54.6875 
L 18.109375 46.1875 
Q 20.953125 51.171875 25.484375 53.578125 
Q 30.03125 56 36.53125 56 
Q 37.453125 56 38.578125 55.875 
Q 39.703125 55.765625 41.0625 55.515625 
z
" id="DejaVuSans-114"/>
      <path d="M 56.203125 29.59375 
L 56.203125 25.203125 
L 14.890625 25.203125 
Q 15.484375 15.921875 20.484375 11.0625 
Q 25.484375 6.203125 34.421875 6.203125 
Q 39.59375 6.203125 44.453125 7.46875 
Q 49.3125 8.734375 54.109375 11.28125 
L 54.109375 2.78125 
Q 49.265625 0.734375 44.1875 -0.34375 
Q 39.109375 -1.421875 33.890625 -1.421875 
Q 20.796875 -1.421875 13.15625 6.1875 
Q 5.515625 13.8125 5.515625 26.8125 
Q 5.515625 40.234375 12.765625 48.109375 
Q 20.015625 56 32.328125 56 
Q 43.359375 56 49.78125 48.890625 
Q 56.203125 41.796875 56.203125 29.59375 
z
M 47.21875 32.234375 
Q 47.125 39.59375 43.09375 43.984375 
Q 39.0625 48.390625 32.421875 48.390625 
Q 24.90625 48.390625 20.390625 44.140625 
Q 15.875 39.890625 15.1875 32.171875 
z
" id="DejaVuSans-101"/>
      <path d="M 37.109375 75.984375 
L 37.109375 68.5 
L 28.515625 68.5 
Q 23.6875 68.5 21.796875 66.546875 
Q 19.921875 64.59375 19.921875 59.515625 
L 19.921875 54.6875 
L 34.71875 54.6875 
L 34.71875 47.703125 
L 19.921875 47.703125 
L 19.921875 0 
L 10.890625 0 
L 10.890625 47.703125 
L 2.296875 47.703125 
L 2.296875 54.6875 
L 10.890625 54.6875 
L 10.890625 58.5 
Q 10.890625 67.625 15.140625 71.796875 
Q 19.390625 75.984375 28.609375 75.984375 
z
" id="DejaVuSans-102"/>
     </defs>
     <g transform="translate(188.042188 742.019531)rotate(-90)scale(0.1 -0.1)">
      <use xlink:href="#DejaVuSans-110"/>
      <use x="63.378906" xlink:href="#DejaVuSans-117"/>
      <use x="126.757812" xlink:href="#DejaVuSans-109"/>
      <use x="224.169922" xlink:href="#DejaVuSans-95"/>
      <use x="274.169922" xlink:href="#DejaVuSans-114"/>
      <use x="313.033203" xlink:href="#DejaVuSans-101"/>
      <use x="374.556641" xlink:href="#DejaVuSans-102"/>
      <use x="409.761719" xlink:href="#DejaVuSans-101"/>
      <use x="471.285156" xlink:href="#DejaVuSans-114"/>
     </g>
    </g>
   </g>
   <g id="text_2">
    <!-- ACE2 -->
    <defs>
     <path d="M 34.1875 63.1875 
L 20.796875 26.90625 
L 47.609375 26.90625 
z
M 28.609375 72.90625 
L 39.796875 72.90625 
L 67.578125 0 
L 57.328125 0 
L 50.6875 18.703125 
L 17.828125 18.703125 
L 11.1875 0 
L 0.78125 0 
z
" id="DejaVuSans-65"/>
     <path d="M 64.40625 67.28125 
L 64.40625 56.890625 
Q 59.421875 61.53125 53.78125 63.8125 
Q 48.140625 66.109375 41.796875 66.109375 
Q 29.296875 66.109375 22.65625 58.46875 
Q 16.015625 50.828125 16.015625 36.375 
Q 16.015625 21.96875 22.65625 14.328125 
Q 29.296875 6.6875 41.796875 6.6875 
Q 48.140625 6.6875 53.78125 8.984375 
Q 59.421875 11.28125 64.40625 15.921875 
L 64.40625 5.609375 
Q 59.234375 2.09375 53.4375 0.328125 
Q 47.65625 -1.421875 41.21875 -1.421875 
Q 24.65625 -1.421875 15.125 8.703125 
Q 5.609375 18.84375 5.609375 36.375 
Q 5.609375 53.953125 15.125 64.078125 
Q 24.65625 74.21875 41.21875 74.21875 
Q 47.75 74.21875 53.53125 72.484375 
Q 59.328125 70.75 64.40625 67.28125 
z
" id="DejaVuSans-67"/>
     <path d="M 9.8125 72.90625 
L 55.90625 72.90625 
L 55.90625 64.59375 
L 19.671875 64.59375 
L 19.671875 43.015625 
L 54.390625 43.015625 
L 54.390625 34.71875 
L 19.671875 34.71875 
L 19.671875 8.296875 
L 56.78125 8.296875 
L 56.78125 0 
L 9.8125 0 
z
" id="DejaVuSans-69"/>
     <path d="M 19.1875 8.296875 
L 53.609375 8.296875 
L 53.609375 0 
L 7.328125 0 
L 7.328125 8.296875 
Q 12.9375 14.109375 22.625 23.890625 
Q 32.328125 33.6875 34.8125 36.53125 
Q 39.546875 41.84375 41.421875 45.53125 
Q 43.3125 49.21875 43.3125 52.78125 
Q 43.3125 58.59375 39.234375 62.25 
Q 35.15625 65.921875 28.609375 65.921875 
Q 23.96875 65.921875 18.8125 64.3125 
Q 13.671875 62.703125 7.8125 59.421875 
L 7.8125 69.390625 
Q 13.765625 71.78125 18.9375 73 
Q 24.125 74.21875 28.421875 74.21875 
Q 39.75 74.21875 46.484375 68.546875 
Q 53.21875 62.890625 53.21875 53.421875 
Q 53.21875 48.921875 51.53125 44.890625 
Q 49.859375 40.875 45.40625 35.40625 
Q 44.1875 33.984375 37.640625 27.21875 
Q 31.109375 20.453125 19.1875 8.296875 
z
" id="DejaVuSans-50"/>
    </defs>
    <g transform="translate(1168.792405 511.183782)scale(0.1 -0.1)">
     <use xlink:href="#DejaVuSans-65"/>
     <use x="66.658203" xlink:href="#DejaVuSans-67"/>
     <use x="136.482422" xlink:href="#DejaVuSans-69"/>
     <use x="199.666016" xlink:href="#DejaVuSans-50"/>
    </g>
   </g>
   <g id="text_3">
    <!-- 14.3% -->
    <defs>
     <path d="M 12.40625 8.296875 
L 28.515625 8.296875 
L 28.515625 63.921875 
L 10.984375 60.40625 
L 10.984375 69.390625 
L 28.421875 72.90625 
L 38.28125 72.90625 
L 38.28125 8.296875 
L 54.390625 8.296875 
L 54.390625 0 
L 12.40625 0 
z
" id="DejaVuSans-49"/>
     <path d="M 37.796875 64.3125 
L 12.890625 25.390625 
L 37.796875 25.390625 
z
M 35.203125 72.90625 
L 47.609375 72.90625 
L 47.609375 25.390625 
L 58.015625 25.390625 
L 58.015625 17.1875 
L 47.609375 17.1875 
L 47.609375 0 
L 37.796875 0 
L 37.796875 17.1875 
L 4.890625 17.1875 
L 4.890625 26.703125 
z
" id="DejaVuSans-52"/>
     <path d="M 10.6875 12.40625 
L 21 12.40625 
L 21 0 
L 10.6875 0 
z
" id="DejaVuSans-46"/>
     <path d="M 40.578125 39.3125 
Q 47.65625 37.796875 51.625 33 
Q 55.609375 28.21875 55.609375 21.1875 
Q 55.609375 10.40625 48.1875 4.484375 
Q 40.765625 -1.421875 27.09375 -1.421875 
Q 22.515625 -1.421875 17.65625 -0.515625 
Q 12.796875 0.390625 7.625 2.203125 
L 7.625 11.71875 
Q 11.71875 9.328125 16.59375 8.109375 
Q 21.484375 6.890625 26.8125 6.890625 
Q 36.078125 6.890625 40.9375 10.546875 
Q 45.796875 14.203125 45.796875 21.1875 
Q 45.796875 27.640625 41.28125 31.265625 
Q 36.765625 34.90625 28.71875 34.90625 
L 20.21875 34.90625 
L 20.21875 43.015625 
L 29.109375 43.015625 
Q 36.375 43.015625 40.234375 45.921875 
Q 44.09375 48.828125 44.09375 54.296875 
Q 44.09375 59.90625 40.109375 62.90625 
Q 36.140625 65.921875 28.71875 65.921875 
Q 24.65625 65.921875 20.015625 65.03125 
Q 15.375 64.15625 9.8125 62.3125 
L 9.8125 71.09375 
Q 15.4375 72.65625 20.34375 73.4375 
Q 25.25 74.21875 29.59375 74.21875 
Q 40.828125 74.21875 47.359375 69.109375 
Q 53.90625 64.015625 53.90625 55.328125 
Q 53.90625 49.265625 50.4375 45.09375 
Q 46.96875 40.921875 40.578125 39.3125 
z
" id="DejaVuSans-51"/>
     <path d="M 72.703125 32.078125 
Q 68.453125 32.078125 66.03125 28.46875 
Q 63.625 24.859375 63.625 18.40625 
Q 63.625 12.0625 66.03125 8.421875 
Q 68.453125 4.78125 72.703125 4.78125 
Q 76.859375 4.78125 79.265625 8.421875 
Q 81.6875 12.0625 81.6875 18.40625 
Q 81.6875 24.8125 79.265625 28.4375 
Q 76.859375 32.078125 72.703125 32.078125 
z
M 72.703125 38.28125 
Q 80.421875 38.28125 84.953125 32.90625 
Q 89.5 27.546875 89.5 18.40625 
Q 89.5 9.28125 84.9375 3.921875 
Q 80.375 -1.421875 72.703125 -1.421875 
Q 64.890625 -1.421875 60.34375 3.921875 
Q 55.8125 9.28125 55.8125 18.40625 
Q 55.8125 27.59375 60.375 32.9375 
Q 64.9375 38.28125 72.703125 38.28125 
z
M 22.3125 68.015625 
Q 18.109375 68.015625 15.6875 64.375 
Q 13.28125 60.75 13.28125 54.390625 
Q 13.28125 47.953125 15.671875 44.328125 
Q 18.0625 40.71875 22.3125 40.71875 
Q 26.5625 40.71875 28.96875 44.328125 
Q 31.390625 47.953125 31.390625 54.390625 
Q 31.390625 60.6875 28.953125 64.34375 
Q 26.515625 68.015625 22.3125 68.015625 
z
M 66.40625 74.21875 
L 74.21875 74.21875 
L 28.609375 -1.421875 
L 20.796875 -1.421875 
z
M 22.3125 74.21875 
Q 30.03125 74.21875 34.609375 68.875 
Q 39.203125 63.53125 39.203125 54.390625 
Q 39.203125 45.171875 34.640625 39.84375 
Q 30.078125 34.515625 22.3125 34.515625 
Q 14.546875 34.515625 10.03125 39.859375 
Q 5.515625 45.21875 5.515625 54.390625 
Q 5.515625 63.484375 10.046875 68.84375 
Q 14.59375 74.21875 22.3125 74.21875 
z
" id="DejaVuSans-37"/>
    </defs>
    <g transform="translate(957.094082 605.718142)scale(0.1 -0.1)">
     <use xlink:href="#DejaVuSans-49"/>
     <use x="63.623047" xlink:href="#DejaVuSans-52"/>
     <use x="127.246094" xlink:href="#DejaVuSans-46"/>
     <use x="159.033203" xlink:href="#DejaVuSans-51"/>
     <use x="222.65625" xlink:href="#DejaVuSans-37"/>
    </g>
   </g>
   <g id="text_4">
    <!-- Bat SARS-like Coronaviruses -->
    <defs>
     <path d="M 19.671875 34.8125 
L 19.671875 8.109375 
L 35.5 8.109375 
Q 43.453125 8.109375 47.28125 11.40625 
Q 51.125 14.703125 51.125 21.484375 
Q 51.125 28.328125 47.28125 31.5625 
Q 43.453125 34.8125 35.5 34.8125 
z
M 19.671875 64.796875 
L 19.671875 42.828125 
L 34.28125 42.828125 
Q 41.5 42.828125 45.03125 45.53125 
Q 48.578125 48.25 48.578125 53.8125 
Q 48.578125 59.328125 45.03125 62.0625 
Q 41.5 64.796875 34.28125 64.796875 
z
M 9.8125 72.90625 
L 35.015625 72.90625 
Q 46.296875 72.90625 52.390625 68.21875 
Q 58.5 63.53125 58.5 54.890625 
Q 58.5 48.1875 55.375 44.234375 
Q 52.25 40.28125 46.1875 39.3125 
Q 53.46875 37.75 57.5 32.78125 
Q 61.53125 27.828125 61.53125 20.40625 
Q 61.53125 10.640625 54.890625 5.3125 
Q 48.25 0 35.984375 0 
L 9.8125 0 
z
" id="DejaVuSans-66"/>
     <path d="M 34.28125 27.484375 
Q 23.390625 27.484375 19.1875 25 
Q 14.984375 22.515625 14.984375 16.5 
Q 14.984375 11.71875 18.140625 8.90625 
Q 21.296875 6.109375 26.703125 6.109375 
Q 34.1875 6.109375 38.703125 11.40625 
Q 43.21875 16.703125 43.21875 25.484375 
L 43.21875 27.484375 
z
M 52.203125 31.203125 
L 52.203125 0 
L 43.21875 0 
L 43.21875 8.296875 
Q 40.140625 3.328125 35.546875 0.953125 
Q 30.953125 -1.421875 24.3125 -1.421875 
Q 15.921875 -1.421875 10.953125 3.296875 
Q 6 8.015625 6 15.921875 
Q 6 25.140625 12.171875 29.828125 
Q 18.359375 34.515625 30.609375 34.515625 
L 43.21875 34.515625 
L 43.21875 35.40625 
Q 43.21875 41.609375 39.140625 45 
Q 35.0625 48.390625 27.6875 48.390625 
Q 23 48.390625 18.546875 47.265625 
Q 14.109375 46.140625 10.015625 43.890625 
L 10.015625 52.203125 
Q 14.9375 54.109375 19.578125 55.046875 
Q 24.21875 56 28.609375 56 
Q 40.484375 56 46.34375 49.84375 
Q 52.203125 43.703125 52.203125 31.203125 
z
" id="DejaVuSans-97"/>
     <path d="M 18.3125 70.21875 
L 18.3125 54.6875 
L 36.8125 54.6875 
L 36.8125 47.703125 
L 18.3125 47.703125 
L 18.3125 18.015625 
Q 18.3125 11.328125 20.140625 9.421875 
Q 21.96875 7.515625 27.59375 7.515625 
L 36.8125 7.515625 
L 36.8125 0 
L 27.59375 0 
Q 17.1875 0 13.234375 3.875 
Q 9.28125 7.765625 9.28125 18.015625 
L 9.28125 47.703125 
L 2.6875 47.703125 
L 2.6875 54.6875 
L 9.28125 54.6875 
L 9.28125 70.21875 
z
" id="DejaVuSans-116"/>
     <path id="DejaVuSans-32"/>
     <path d="M 53.515625 70.515625 
L 53.515625 60.890625 
Q 47.90625 63.578125 42.921875 64.890625 
Q 37.9375 66.21875 33.296875 66.21875 
Q 25.25 66.21875 20.875 63.09375 
Q 16.5 59.96875 16.5 54.203125 
Q 16.5 49.359375 19.40625 46.890625 
Q 22.3125 44.4375 30.421875 42.921875 
L 36.375 41.703125 
Q 47.40625 39.59375 52.65625 34.296875 
Q 57.90625 29 57.90625 20.125 
Q 57.90625 9.515625 50.796875 4.046875 
Q 43.703125 -1.421875 29.984375 -1.421875 
Q 24.8125 -1.421875 18.96875 -0.25 
Q 13.140625 0.921875 6.890625 3.21875 
L 6.890625 13.375 
Q 12.890625 10.015625 18.65625 8.296875 
Q 24.421875 6.59375 29.984375 6.59375 
Q 38.421875 6.59375 43.015625 9.90625 
Q 47.609375 13.234375 47.609375 19.390625 
Q 47.609375 24.75 44.3125 27.78125 
Q 41.015625 30.8125 33.5 32.328125 
L 27.484375 33.5 
Q 16.453125 35.6875 11.515625 40.375 
Q 6.59375 45.0625 6.59375 53.421875 
Q 6.59375 63.09375 13.40625 68.65625 
Q 20.21875 74.21875 32.171875 74.21875 
Q 37.3125 74.21875 42.625 73.28125 
Q 47.953125 72.359375 53.515625 70.515625 
z
" id="DejaVuSans-83"/>
     <path d="M 44.390625 34.1875 
Q 47.5625 33.109375 50.5625 29.59375 
Q 53.5625 26.078125 56.59375 19.921875 
L 66.609375 0 
L 56 0 
L 46.6875 18.703125 
Q 43.0625 26.03125 39.671875 28.421875 
Q 36.28125 30.8125 30.421875 30.8125 
L 19.671875 30.8125 
L 19.671875 0 
L 9.8125 0 
L 9.8125 72.90625 
L 32.078125 72.90625 
Q 44.578125 72.90625 50.734375 67.671875 
Q 56.890625 62.453125 56.890625 51.90625 
Q 56.890625 45.015625 53.6875 40.46875 
Q 50.484375 35.9375 44.390625 34.1875 
z
M 19.671875 64.796875 
L 19.671875 38.921875 
L 32.078125 38.921875 
Q 39.203125 38.921875 42.84375 42.21875 
Q 46.484375 45.515625 46.484375 51.90625 
Q 46.484375 58.296875 42.84375 61.546875 
Q 39.203125 64.796875 32.078125 64.796875 
z
" id="DejaVuSans-82"/>
     <path d="M 4.890625 31.390625 
L 31.203125 31.390625 
L 31.203125 23.390625 
L 4.890625 23.390625 
z
" id="DejaVuSans-45"/>
     <path d="M 9.421875 75.984375 
L 18.40625 75.984375 
L 18.40625 0 
L 9.421875 0 
z
" id="DejaVuSans-108"/>
     <path d="M 9.421875 54.6875 
L 18.40625 54.6875 
L 18.40625 0 
L 9.421875 0 
z
M 9.421875 75.984375 
L 18.40625 75.984375 
L 18.40625 64.59375 
L 9.421875 64.59375 
z
" id="DejaVuSans-105"/>
     <path d="M 9.078125 75.984375 
L 18.109375 75.984375 
L 18.109375 31.109375 
L 44.921875 54.6875 
L 56.390625 54.6875 
L 27.390625 29.109375 
L 57.625 0 
L 45.90625 0 
L 18.109375 26.703125 
L 18.109375 0 
L 9.078125 0 
z
" id="DejaVuSans-107"/>
     <path d="M 30.609375 48.390625 
Q 23.390625 48.390625 19.1875 42.75 
Q 14.984375 37.109375 14.984375 27.296875 
Q 14.984375 17.484375 19.15625 11.84375 
Q 23.34375 6.203125 30.609375 6.203125 
Q 37.796875 6.203125 41.984375 11.859375 
Q 46.1875 17.53125 46.1875 27.296875 
Q 46.1875 37.015625 41.984375 42.703125 
Q 37.796875 48.390625 30.609375 48.390625 
z
M 30.609375 56 
Q 42.328125 56 49.015625 48.375 
Q 55.71875 40.765625 55.71875 27.296875 
Q 55.71875 13.875 49.015625 6.21875 
Q 42.328125 -1.421875 30.609375 -1.421875 
Q 18.84375 -1.421875 12.171875 6.21875 
Q 5.515625 13.875 5.515625 27.296875 
Q 5.515625 40.765625 12.171875 48.375 
Q 18.84375 56 30.609375 56 
z
" id="DejaVuSans-111"/>
     <path d="M 2.984375 54.6875 
L 12.5 54.6875 
L 29.59375 8.796875 
L 46.6875 54.6875 
L 56.203125 54.6875 
L 35.6875 0 
L 23.484375 0 
z
" id="DejaVuSans-118"/>
     <path d="M 44.28125 53.078125 
L 44.28125 44.578125 
Q 40.484375 46.53125 36.375 47.5 
Q 32.28125 48.484375 27.875 48.484375 
Q 21.1875 48.484375 17.84375 46.4375 
Q 14.5 44.390625 14.5 40.28125 
Q 14.5 37.15625 16.890625 35.375 
Q 19.28125 33.59375 26.515625 31.984375 
L 29.59375 31.296875 
Q 39.15625 29.25 43.1875 25.515625 
Q 47.21875 21.78125 47.21875 15.09375 
Q 47.21875 7.46875 41.1875 3.015625 
Q 35.15625 -1.421875 24.609375 -1.421875 
Q 20.21875 -1.421875 15.453125 -0.5625 
Q 10.6875 0.296875 5.421875 2 
L 5.421875 11.28125 
Q 10.40625 8.6875 15.234375 7.390625 
Q 20.0625 6.109375 24.8125 6.109375 
Q 31.15625 6.109375 34.5625 8.28125 
Q 37.984375 10.453125 37.984375 14.40625 
Q 37.984375 18.0625 35.515625 20.015625 
Q 33.0625 21.96875 24.703125 23.78125 
L 21.578125 24.515625 
Q 13.234375 26.265625 9.515625 29.90625 
Q 5.8125 33.546875 5.8125 39.890625 
Q 5.8125 47.609375 11.28125 51.796875 
Q 16.75 56 26.8125 56 
Q 31.78125 56 36.171875 55.265625 
Q 40.578125 54.546875 44.28125 53.078125 
z
" id="DejaVuSans-115"/>
    </defs>
    <g transform="translate(1023.903609 335.629624)scale(0.1 -0.1)">
     <use xlink:href="#DejaVuSans-66"/>
     <use x="68.603516" xlink:href="#DejaVuSans-97"/>
     <use x="129.882812" xlink:href="#DejaVuSans-116"/>
     <use x="169.091797" xlink:href="#DejaVuSans-32"/>
     <use x="200.878906" xlink:href="#DejaVuSans-83"/>
     <use x="266.230469" xlink:href="#DejaVuSans-65"/>
     <use x="334.638672" xlink:href="#DejaVuSans-82"/>
     <use x="404.121094" xlink:href="#DejaVuSans-83"/>
     <use x="467.597656" xlink:href="#DejaVuSans-45"/>
     <use x="503.681641" xlink:href="#DejaVuSans-108"/>
     <use x="531.464844" xlink:href="#DejaVuSans-105"/>
     <use x="559.248047" xlink:href="#DejaVuSans-107"/>
     <use x="613.533203" xlink:href="#DejaVuSans-101"/>
     <use x="675.056641" xlink:href="#DejaVuSans-32"/>
     <use x="706.84375" xlink:href="#DejaVuSans-67"/>
     <use x="776.667969" xlink:href="#DejaVuSans-111"/>
     <use x="837.849609" xlink:href="#DejaVuSans-114"/>
     <use x="876.712891" xlink:href="#DejaVuSans-111"/>
     <use x="937.894531" xlink:href="#DejaVuSans-110"/>
     <use x="1001.273438" xlink:href="#DejaVuSans-97"/>
     <use x="1062.552734" xlink:href="#DejaVuSans-118"/>
     <use x="1121.732422" xlink:href="#DejaVuSans-105"/>
     <use x="1149.515625" xlink:href="#DejaVuSans-114"/>
     <use x="1190.628906" xlink:href="#DejaVuSans-117"/>
     <use x="1254.007812" xlink:href="#DejaVuSans-115"/>
     <use x="1306.107422" xlink:href="#DejaVuSans-101"/>
     <use x="1367.630859" xlink:href="#DejaVuSans-115"/>
    </g>
   </g>
   <g id="text_5">
    <!-- 1.0% -->
    <defs>
     <path d="M 31.78125 66.40625 
Q 24.171875 66.40625 20.328125 58.90625 
Q 16.5 51.421875 16.5 36.375 
Q 16.5 21.390625 20.328125 13.890625 
Q 24.171875 6.390625 31.78125 6.390625 
Q 39.453125 6.390625 43.28125 13.890625 
Q 47.125 21.390625 47.125 36.375 
Q 47.125 51.421875 43.28125 58.90625 
Q 39.453125 66.40625 31.78125 66.40625 
z
M 31.78125 74.21875 
Q 44.046875 74.21875 50.515625 64.515625 
Q 56.984375 54.828125 56.984375 36.375 
Q 56.984375 17.96875 50.515625 8.265625 
Q 44.046875 -1.421875 31.78125 -1.421875 
Q 19.53125 -1.421875 13.0625 8.265625 
Q 6.59375 17.96875 6.59375 36.375 
Q 6.59375 54.828125 13.0625 64.515625 
Q 19.53125 74.21875 31.78125 74.21875 
z
" id="DejaVuSans-48"/>
    </defs>
    <g transform="translate(881.24508 509.961329)scale(0.1 -0.1)">
     <use xlink:href="#DejaVuSans-49"/>
     <use x="63.623047" xlink:href="#DejaVuSans-46"/>
     <use x="95.410156" xlink:href="#DejaVuSans-48"/>
     <use x="159.033203" xlink:href="#DejaVuSans-37"/>
    </g>
   </g>
   <g id="text_6">
    <!-- Bat coronavirus -->
    <defs>
     <path d="M 48.78125 52.59375 
L 48.78125 44.1875 
Q 44.96875 46.296875 41.140625 47.34375 
Q 37.3125 48.390625 33.40625 48.390625 
Q 24.65625 48.390625 19.8125 42.84375 
Q 14.984375 37.3125 14.984375 27.296875 
Q 14.984375 17.28125 19.8125 11.734375 
Q 24.65625 6.203125 33.40625 6.203125 
Q 37.3125 6.203125 41.140625 7.25 
Q 44.96875 8.296875 48.78125 10.40625 
L 48.78125 2.09375 
Q 45.015625 0.34375 40.984375 -0.53125 
Q 36.96875 -1.421875 32.421875 -1.421875 
Q 20.0625 -1.421875 12.78125 6.34375 
Q 5.515625 14.109375 5.515625 27.296875 
Q 5.515625 40.671875 12.859375 48.328125 
Q 20.21875 56 33.015625 56 
Q 37.15625 56 41.109375 55.140625 
Q 45.0625 54.296875 48.78125 52.59375 
z
" id="DejaVuSans-99"/>
    </defs>
    <g transform="translate(992.999824 314.423618)scale(0.1 -0.1)">
     <use xlink:href="#DejaVuSans-66"/>
     <use x="68.603516" xlink:href="#DejaVuSans-97"/>
     <use x="129.882812" xlink:href="#DejaVuSans-116"/>
     <use x="169.091797" xlink:href="#DejaVuSans-32"/>
     <use x="200.878906" xlink:href="#DejaVuSans-99"/>
     <use x="255.859375" xlink:href="#DejaVuSans-111"/>
     <use x="317.041016" xlink:href="#DejaVuSans-114"/>
     <use x="355.904297" xlink:href="#DejaVuSans-111"/>
     <use x="417.085938" xlink:href="#DejaVuSans-110"/>
     <use x="480.464844" xlink:href="#DejaVuSans-97"/>
     <use x="541.744141" xlink:href="#DejaVuSans-118"/>
     <use x="600.923828" xlink:href="#DejaVuSans-105"/>
     <use x="628.707031" xlink:href="#DejaVuSans-114"/>
     <use x="669.820312" xlink:href="#DejaVuSans-117"/>
     <use x="733.199219" xlink:href="#DejaVuSans-115"/>
    </g>
   </g>
   <g id="text_7">
    <!-- 1.5% -->
    <defs>
     <path d="M 10.796875 72.90625 
L 49.515625 72.90625 
L 49.515625 64.59375 
L 19.828125 64.59375 
L 19.828125 46.734375 
Q 21.96875 47.46875 24.109375 47.828125 
Q 26.265625 48.1875 28.421875 48.1875 
Q 40.625 48.1875 47.75 41.5 
Q 54.890625 34.8125 54.890625 23.390625 
Q 54.890625 11.625 47.5625 5.09375 
Q 40.234375 -1.421875 26.90625 -1.421875 
Q 22.3125 -1.421875 17.546875 -0.640625 
Q 12.796875 0.140625 7.71875 1.703125 
L 7.71875 11.625 
Q 12.109375 9.234375 16.796875 8.0625 
Q 21.484375 6.890625 26.703125 6.890625 
Q 35.15625 6.890625 40.078125 11.328125 
Q 45.015625 15.765625 45.015625 23.390625 
Q 45.015625 31 40.078125 35.4375 
Q 35.15625 39.890625 26.703125 39.890625 
Q 22.75 39.890625 18.8125 39.015625 
Q 14.890625 38.140625 10.796875 36.28125 
z
" id="DejaVuSans-53"/>
    </defs>
    <g transform="translate(864.388469 498.394417)scale(0.1 -0.1)">
     <use xlink:href="#DejaVuSans-49"/>
     <use x="63.623047" xlink:href="#DejaVuSans-46"/>
     <use x="95.410156" xlink:href="#DejaVuSans-53"/>
     <use x="159.033203" xlink:href="#DejaVuSans-37"/>
    </g>
   </g>
   <g id="text_8">
    <!-- Bat-SL-CoVZC45 -->
    <defs>
     <path d="M 9.8125 72.90625 
L 19.671875 72.90625 
L 19.671875 8.296875 
L 55.171875 8.296875 
L 55.171875 0 
L 9.8125 0 
z
" id="DejaVuSans-76"/>
     <path d="M 28.609375 0 
L 0.78125 72.90625 
L 11.078125 72.90625 
L 34.1875 11.53125 
L 57.328125 72.90625 
L 67.578125 72.90625 
L 39.796875 0 
z
" id="DejaVuSans-86"/>
     <path d="M 5.609375 72.90625 
L 62.890625 72.90625 
L 62.890625 65.375 
L 16.796875 8.296875 
L 64.015625 8.296875 
L 64.015625 0 
L 4.5 0 
L 4.5 7.515625 
L 50.59375 64.59375 
L 5.609375 64.59375 
z
" id="DejaVuSans-90"/>
    </defs>
    <g transform="translate(959.086526 294.946349)scale(0.1 -0.1)">
     <use xlink:href="#DejaVuSans-66"/>
     <use x="68.603516" xlink:href="#DejaVuSans-97"/>
     <use x="129.882812" xlink:href="#DejaVuSans-116"/>
     <use x="169.091797" xlink:href="#DejaVuSans-45"/>
     <use x="205.175781" xlink:href="#DejaVuSans-83"/>
     <use x="268.652344" xlink:href="#DejaVuSans-76"/>
     <use x="322.615234" xlink:href="#DejaVuSans-45"/>
     <use x="358.699219" xlink:href="#DejaVuSans-67"/>
     <use x="428.523438" xlink:href="#DejaVuSans-111"/>
     <use x="489.705078" xlink:href="#DejaVuSans-86"/>
     <use x="558.113281" xlink:href="#DejaVuSans-90"/>
     <use x="626.619141" xlink:href="#DejaVuSans-67"/>
     <use x="696.443359" xlink:href="#DejaVuSans-52"/>
     <use x="760.066406" xlink:href="#DejaVuSans-53"/>
    </g>
   </g>
   <g id="text_9">
    <!-- 1.1% -->
    <g transform="translate(845.890307 487.770452)scale(0.1 -0.1)">
     <use xlink:href="#DejaVuSans-49"/>
     <use x="63.623047" xlink:href="#DejaVuSans-46"/>
     <use x="95.410156" xlink:href="#DejaVuSans-49"/>
     <use x="159.033203" xlink:href="#DejaVuSans-37"/>
    </g>
   </g>
   <g id="text_10">
    <!-- Beta coronavirus -->
    <g transform="translate(925.196622 278.939693)scale(0.1 -0.1)">
     <use xlink:href="#DejaVuSans-66"/>
     <use x="68.603516" xlink:href="#DejaVuSans-101"/>
     <use x="130.126953" xlink:href="#DejaVuSans-116"/>
     <use x="169.335938" xlink:href="#DejaVuSans-97"/>
     <use x="230.615234" xlink:href="#DejaVuSans-32"/>
     <use x="262.402344" xlink:href="#DejaVuSans-99"/>
     <use x="317.382812" xlink:href="#DejaVuSans-111"/>
     <use x="378.564453" xlink:href="#DejaVuSans-114"/>
     <use x="417.427734" xlink:href="#DejaVuSans-111"/>
     <use x="478.609375" xlink:href="#DejaVuSans-110"/>
     <use x="541.988281" xlink:href="#DejaVuSans-97"/>
     <use x="603.267578" xlink:href="#DejaVuSans-118"/>
     <use x="662.447266" xlink:href="#DejaVuSans-105"/>
     <use x="690.230469" xlink:href="#DejaVuSans-114"/>
     <use x="731.34375" xlink:href="#DejaVuSans-117"/>
     <use x="794.722656" xlink:href="#DejaVuSans-115"/>
    </g>
   </g>
   <g id="text_11">
    <!-- 1.4% -->
    <g transform="translate(827.404904 479.039549)scale(0.1 -0.1)">
     <use xlink:href="#DejaVuSans-49"/>
     <use x="63.623047" xlink:href="#DejaVuSans-46"/>
     <use x="95.410156" xlink:href="#DejaVuSans-52"/>
     <use x="159.033203" xlink:href="#DejaVuSans-37"/>
    </g>
   </g>
   <g id="text_12">
    <!-- E -->
    <g transform="translate(882.409266 263.109041)scale(0.1 -0.1)">
     <use xlink:href="#DejaVuSans-69"/>
    </g>
   </g>
   <g id="text_13">
    <!-- 1.6% -->
    <defs>
     <path d="M 33.015625 40.375 
Q 26.375 40.375 22.484375 35.828125 
Q 18.609375 31.296875 18.609375 23.390625 
Q 18.609375 15.53125 22.484375 10.953125 
Q 26.375 6.390625 33.015625 6.390625 
Q 39.65625 6.390625 43.53125 10.953125 
Q 47.40625 15.53125 47.40625 23.390625 
Q 47.40625 31.296875 43.53125 35.828125 
Q 39.65625 40.375 33.015625 40.375 
z
M 52.59375 71.296875 
L 52.59375 62.3125 
Q 48.875 64.0625 45.09375 64.984375 
Q 41.3125 65.921875 37.59375 65.921875 
Q 27.828125 65.921875 22.671875 59.328125 
Q 17.53125 52.734375 16.796875 39.40625 
Q 19.671875 43.65625 24.015625 45.921875 
Q 28.375 48.1875 33.59375 48.1875 
Q 44.578125 48.1875 50.953125 41.515625 
Q 57.328125 34.859375 57.328125 23.390625 
Q 57.328125 12.15625 50.6875 5.359375 
Q 44.046875 -1.421875 33.015625 -1.421875 
Q 20.359375 -1.421875 13.671875 8.265625 
Q 6.984375 17.96875 6.984375 36.375 
Q 6.984375 53.65625 15.1875 63.9375 
Q 23.390625 74.21875 37.203125 74.21875 
Q 40.921875 74.21875 44.703125 73.484375 
Q 48.484375 72.75 52.59375 71.296875 
z
" id="DejaVuSans-54"/>
    </defs>
    <g transform="translate(804.066347 470.404647)scale(0.1 -0.1)">
     <use xlink:href="#DejaVuSans-49"/>
     <use x="63.623047" xlink:href="#DejaVuSans-46"/>
     <use x="95.410156" xlink:href="#DejaVuSans-54"/>
     <use x="159.033203" xlink:href="#DejaVuSans-37"/>
    </g>
   </g>
   <g id="text_14">
    <!-- MERS-CoV -->
    <defs>
     <path d="M 9.8125 72.90625 
L 24.515625 72.90625 
L 43.109375 23.296875 
L 61.8125 72.90625 
L 76.515625 72.90625 
L 76.515625 0 
L 66.890625 0 
L 66.890625 64.015625 
L 48.09375 14.015625 
L 38.1875 14.015625 
L 19.390625 64.015625 
L 19.390625 0 
L 9.8125 0 
z
" id="DejaVuSans-77"/>
    </defs>
    <g transform="translate(819.105075 247.717003)scale(0.1 -0.1)">
     <use xlink:href="#DejaVuSans-77"/>
     <use x="86.279297" xlink:href="#DejaVuSans-69"/>
     <use x="149.462891" xlink:href="#DejaVuSans-82"/>
     <use x="218.945312" xlink:href="#DejaVuSans-83"/>
     <use x="282.421875" xlink:href="#DejaVuSans-45"/>
     <use x="318.505859" xlink:href="#DejaVuSans-67"/>
     <use x="388.330078" xlink:href="#DejaVuSans-111"/>
     <use x="449.511719" xlink:href="#DejaVuSans-86"/>
    </g>
   </g>
   <g id="text_15">
    <!-- 2.7% -->
    <defs>
     <path d="M 8.203125 72.90625 
L 55.078125 72.90625 
L 55.078125 68.703125 
L 28.609375 0 
L 18.3125 0 
L 43.21875 64.59375 
L 8.203125 64.59375 
z
" id="DejaVuSans-55"/>
    </defs>
    <g transform="translate(769.536788 462.00899)scale(0.1 -0.1)">
     <use xlink:href="#DejaVuSans-50"/>
     <use x="63.623047" xlink:href="#DejaVuSans-46"/>
     <use x="95.410156" xlink:href="#DejaVuSans-55"/>
     <use x="159.033203" xlink:href="#DejaVuSans-37"/>
    </g>
   </g>
   <g id="text_16">
    <!-- Mpro -->
    <defs>
     <path d="M 18.109375 8.203125 
L 18.109375 -20.796875 
L 9.078125 -20.796875 
L 9.078125 54.6875 
L 18.109375 54.6875 
L 18.109375 46.390625 
Q 20.953125 51.265625 25.265625 53.625 
Q 29.59375 56 35.59375 56 
Q 45.5625 56 51.78125 48.09375 
Q 58.015625 40.1875 58.015625 27.296875 
Q 58.015625 14.40625 51.78125 6.484375 
Q 45.5625 -1.421875 35.59375 -1.421875 
Q 29.59375 -1.421875 25.265625 0.953125 
Q 20.953125 3.328125 18.109375 8.203125 
z
M 48.6875 27.296875 
Q 48.6875 37.203125 44.609375 42.84375 
Q 40.53125 48.484375 33.40625 48.484375 
Q 26.265625 48.484375 22.1875 42.84375 
Q 18.109375 37.203125 18.109375 27.296875 
Q 18.109375 17.390625 22.1875 11.75 
Q 26.265625 6.109375 33.40625 6.109375 
Q 40.53125 6.109375 44.609375 11.75 
Q 48.6875 17.390625 48.6875 27.296875 
z
" id="DejaVuSans-112"/>
    </defs>
    <g transform="translate(611.117122 251.770884)scale(0.1 -0.1)">
     <use xlink:href="#DejaVuSans-77"/>
     <use x="86.279297" xlink:href="#DejaVuSans-112"/>
     <use x="149.755859" xlink:href="#DejaVuSans-114"/>
     <use x="188.619141" xlink:href="#DejaVuSans-111"/>
    </g>
   </g>
   <g id="text_17">
    <!-- 9.5% -->
    <defs>
     <path d="M 10.984375 1.515625 
L 10.984375 10.5 
Q 14.703125 8.734375 18.5 7.8125 
Q 22.3125 6.890625 25.984375 6.890625 
Q 35.75 6.890625 40.890625 13.453125 
Q 46.046875 20.015625 46.78125 33.40625 
Q 43.953125 29.203125 39.59375 26.953125 
Q 35.25 24.703125 29.984375 24.703125 
Q 19.046875 24.703125 12.671875 31.3125 
Q 6.296875 37.9375 6.296875 49.421875 
Q 6.296875 60.640625 12.9375 67.421875 
Q 19.578125 74.21875 30.609375 74.21875 
Q 43.265625 74.21875 49.921875 64.515625 
Q 56.59375 54.828125 56.59375 36.375 
Q 56.59375 19.140625 48.40625 8.859375 
Q 40.234375 -1.421875 26.421875 -1.421875 
Q 22.703125 -1.421875 18.890625 -0.6875 
Q 15.09375 0.046875 10.984375 1.515625 
z
M 30.609375 32.421875 
Q 37.25 32.421875 41.125 36.953125 
Q 45.015625 41.5 45.015625 49.421875 
Q 45.015625 57.28125 41.125 61.84375 
Q 37.25 66.40625 30.609375 66.40625 
Q 23.96875 66.40625 20.09375 61.84375 
Q 16.21875 57.28125 16.21875 49.421875 
Q 16.21875 41.5 20.09375 36.953125 
Q 23.96875 32.421875 30.609375 32.421875 
z
" id="DejaVuSans-57"/>
    </defs>
    <g transform="translate(669.71495 464.220198)scale(0.1 -0.1)">
     <use xlink:href="#DejaVuSans-57"/>
     <use x="63.623047" xlink:href="#DejaVuSans-46"/>
     <use x="95.410156" xlink:href="#DejaVuSans-53"/>
     <use x="159.033203" xlink:href="#DejaVuSans-37"/>
    </g>
   </g>
   <g id="text_18">
    <!-- N -->
    <defs>
     <path d="M 9.8125 72.90625 
L 23.09375 72.90625 
L 55.421875 11.921875 
L 55.421875 72.90625 
L 64.984375 72.90625 
L 64.984375 0 
L 51.703125 0 
L 19.390625 60.984375 
L 19.390625 0 
L 9.8125 0 
z
" id="DejaVuSans-78"/>
    </defs>
    <g transform="translate(470.026417 317.936634)scale(0.1 -0.1)">
     <use xlink:href="#DejaVuSans-78"/>
    </g>
   </g>
   <g id="text_19">
    <!-- 2.0% -->
    <g transform="translate(583.210929 500.310607)scale(0.1 -0.1)">
     <use xlink:href="#DejaVuSans-50"/>
     <use x="63.623047" xlink:href="#DejaVuSans-46"/>
     <use x="95.410156" xlink:href="#DejaVuSans-48"/>
     <use x="159.033203" xlink:href="#DejaVuSans-37"/>
    </g>
   </g>
   <g id="text_20">
    <!-- Nsp3 -->
    <g transform="translate(387.851946 367.91066)scale(0.1 -0.1)">
     <use xlink:href="#DejaVuSans-78"/>
     <use x="74.804688" xlink:href="#DejaVuSans-115"/>
     <use x="126.904297" xlink:href="#DejaVuSans-112"/>
     <use x="190.380859" xlink:href="#DejaVuSans-51"/>
    </g>
   </g>
   <g id="text_21">
    <!-- 3.5% -->
    <g transform="translate(548.163206 527.569167)scale(0.1 -0.1)">
     <use xlink:href="#DejaVuSans-51"/>
     <use x="63.623047" xlink:href="#DejaVuSans-46"/>
     <use x="95.410156" xlink:href="#DejaVuSans-53"/>
     <use x="159.033203" xlink:href="#DejaVuSans-37"/>
    </g>
   </g>
   <g id="text_22">
    <!-- SARS-CoV -->
    <g transform="translate(273.769641 479.505015)scale(0.1 -0.1)">
     <use xlink:href="#DejaVuSans-83"/>
     <use x="65.351562" xlink:href="#DejaVuSans-65"/>
     <use x="133.759766" xlink:href="#DejaVuSans-82"/>
     <use x="203.242188" xlink:href="#DejaVuSans-83"/>
     <use x="266.71875" xlink:href="#DejaVuSans-45"/>
     <use x="302.802734" xlink:href="#DejaVuSans-67"/>
     <use x="372.626953" xlink:href="#DejaVuSans-111"/>
     <use x="433.808594" xlink:href="#DejaVuSans-86"/>
    </g>
   </g>
   <g id="text_23">
    <!-- 6.1% -->
    <g transform="translate(499.475699 588.438815)scale(0.1 -0.1)">
     <use xlink:href="#DejaVuSans-54"/>
     <use x="63.623047" xlink:href="#DejaVuSans-46"/>
     <use x="95.410156" xlink:href="#DejaVuSans-49"/>
     <use x="159.033203" xlink:href="#DejaVuSans-37"/>
    </g>
   </g>
   <g id="text_24">
    <!-- SARS-CoV-2 -->
    <g transform="translate(206.951376 638.054308)scale(0.1 -0.1)">
     <use xlink:href="#DejaVuSans-83"/>
     <use x="65.351562" xlink:href="#DejaVuSans-65"/>
     <use x="133.759766" xlink:href="#DejaVuSans-82"/>
     <use x="203.242188" xlink:href="#DejaVuSans-83"/>
     <use x="266.71875" xlink:href="#DejaVuSans-45"/>
     <use x="302.802734" xlink:href="#DejaVuSans-67"/>
     <use x="372.626953" xlink:href="#DejaVuSans-111"/>
     <use x="433.808594" xlink:href="#DejaVuSans-86"/>
     <use x="496.341797" xlink:href="#DejaVuSans-45"/>
     <use x="532.425781" xlink:href="#DejaVuSans-50"/>
    </g>
   </g>
   <g id="text_25">
    <!-- 5.2% -->
    <g transform="translate(468.147271 674.920248)scale(0.1 -0.1)">
     <use xlink:href="#DejaVuSans-53"/>
     <use x="63.623047" xlink:href="#DejaVuSans-46"/>
     <use x="95.410156" xlink:href="#DejaVuSans-50"/>
     <use x="159.033203" xlink:href="#DejaVuSans-37"/>
    </g>
   </g>
   <g id="text_26">
    <!-- Spike -->
    <g transform="translate(270.088792 904.854959)scale(0.1 -0.1)">
     <use xlink:href="#DejaVuSans-83"/>
     <use x="63.476562" xlink:href="#DejaVuSans-112"/>
     <use x="126.953125" xlink:href="#DejaVuSans-105"/>
     <use x="154.736328" xlink:href="#DejaVuSans-107"/>
     <use x="209.021484" xlink:href="#DejaVuSans-101"/>
    </g>
   </g>
   <g id="text_27">
    <!-- 12.9% -->
    <g transform="translate(481.650066 820.447875)scale(0.1 -0.1)">
     <use xlink:href="#DejaVuSans-49"/>
     <use x="63.623047" xlink:href="#DejaVuSans-50"/>
     <use x="127.246094" xlink:href="#DejaVuSans-46"/>
     <use x="159.033203" xlink:href="#DejaVuSans-57"/>
     <use x="222.65625" xlink:href="#DejaVuSans-37"/>
    </g>
   </g>
   <g id="text_28">
    <!-- pneumonia -->
    <g transform="translate(390.616114 1098.75691)scale(0.1 -0.1)">
     <use xlink:href="#DejaVuSans-112"/>
     <use x="63.476562" xlink:href="#DejaVuSans-110"/>
     <use x="126.855469" xlink:href="#DejaVuSans-101"/>
     <use x="188.378906" xlink:href="#DejaVuSans-117"/>
     <use x="251.757812" xlink:href="#DejaVuSans-109"/>
     <use x="349.169922" xlink:href="#DejaVuSans-111"/>
     <use x="410.351562" xlink:href="#DejaVuSans-110"/>
     <use x="473.730469" xlink:href="#DejaVuSans-105"/>
     <use x="501.513672" xlink:href="#DejaVuSans-97"/>
    </g>
   </g>
   <g id="text_29">
    <!-- 3.6% -->
    <g transform="translate(566.513548 926.212576)scale(0.1 -0.1)">
     <use xlink:href="#DejaVuSans-51"/>
     <use x="63.623047" xlink:href="#DejaVuSans-46"/>
     <use x="95.410156" xlink:href="#DejaVuSans-54"/>
     <use x="159.033203" xlink:href="#DejaVuSans-37"/>
    </g>
   </g>
   <g id="text_30">
    <!-- others -->
    <defs>
     <path d="M 54.890625 33.015625 
L 54.890625 0 
L 45.90625 0 
L 45.90625 32.71875 
Q 45.90625 40.484375 42.875 44.328125 
Q 39.84375 48.1875 33.796875 48.1875 
Q 26.515625 48.1875 22.3125 43.546875 
Q 18.109375 38.921875 18.109375 30.90625 
L 18.109375 0 
L 9.078125 0 
L 9.078125 75.984375 
L 18.109375 75.984375 
L 18.109375 46.1875 
Q 21.34375 51.125 25.703125 53.5625 
Q 30.078125 56 35.796875 56 
Q 45.21875 56 50.046875 50.171875 
Q 54.890625 44.34375 54.890625 33.015625 
z
" id="DejaVuSans-104"/>
    </defs>
    <g transform="translate(973.409932 1135.594373)scale(0.1 -0.1)">
     <use xlink:href="#DejaVuSans-111"/>
     <use x="61.181641" xlink:href="#DejaVuSans-116"/>
     <use x="100.390625" xlink:href="#DejaVuSans-104"/>
     <use x="163.769531" xlink:href="#DejaVuSans-101"/>
     <use x="225.292969" xlink:href="#DejaVuSans-114"/>
     <use x="266.40625" xlink:href="#DejaVuSans-115"/>
    </g>
   </g>
   <g id="text_31">
    <!-- 33.6% -->
    <g transform="translate(850.521824 946.305737)scale(0.1 -0.1)">
     <use xlink:href="#DejaVuSans-51"/>
     <use x="63.623047" xlink:href="#DejaVuSans-51"/>
     <use x="127.246094" xlink:href="#DejaVuSans-46"/>
     <use x="159.033203" xlink:href="#DejaVuSans-54"/>
     <use x="222.65625" xlink:href="#DejaVuSans-37"/>
    </g>
   </g>
   <g id="text_32">
    <!-- the popular study objects in references -->
    <defs>
     <path d="M 45.40625 46.390625 
L 45.40625 75.984375 
L 54.390625 75.984375 
L 54.390625 0 
L 45.40625 0 
L 45.40625 8.203125 
Q 42.578125 3.328125 38.25 0.953125 
Q 33.9375 -1.421875 27.875 -1.421875 
Q 17.96875 -1.421875 11.734375 6.484375 
Q 5.515625 14.40625 5.515625 27.296875 
Q 5.515625 40.1875 11.734375 48.09375 
Q 17.96875 56 27.875 56 
Q 33.9375 56 38.25 53.625 
Q 42.578125 51.265625 45.40625 46.390625 
z
M 14.796875 27.296875 
Q 14.796875 17.390625 18.875 11.75 
Q 22.953125 6.109375 30.078125 6.109375 
Q 37.203125 6.109375 41.296875 11.75 
Q 45.40625 17.390625 45.40625 27.296875 
Q 45.40625 37.203125 41.296875 42.84375 
Q 37.203125 48.484375 30.078125 48.484375 
Q 22.953125 48.484375 18.875 42.84375 
Q 14.796875 37.203125 14.796875 27.296875 
z
" id="DejaVuSans-100"/>
     <path d="M 32.171875 -5.078125 
Q 28.375 -14.84375 24.75 -17.8125 
Q 21.140625 -20.796875 15.09375 -20.796875 
L 7.90625 -20.796875 
L 7.90625 -13.28125 
L 13.1875 -13.28125 
Q 16.890625 -13.28125 18.9375 -11.515625 
Q 21 -9.765625 23.484375 -3.21875 
L 25.09375 0.875 
L 2.984375 54.6875 
L 12.5 54.6875 
L 29.59375 11.921875 
L 46.6875 54.6875 
L 56.203125 54.6875 
z
" id="DejaVuSans-121"/>
     <path d="M 48.6875 27.296875 
Q 48.6875 37.203125 44.609375 42.84375 
Q 40.53125 48.484375 33.40625 48.484375 
Q 26.265625 48.484375 22.1875 42.84375 
Q 18.109375 37.203125 18.109375 27.296875 
Q 18.109375 17.390625 22.1875 11.75 
Q 26.265625 6.109375 33.40625 6.109375 
Q 40.53125 6.109375 44.609375 11.75 
Q 48.6875 17.390625 48.6875 27.296875 
z
M 18.109375 46.390625 
Q 20.953125 51.265625 25.265625 53.625 
Q 29.59375 56 35.59375 56 
Q 45.5625 56 51.78125 48.09375 
Q 58.015625 40.1875 58.015625 27.296875 
Q 58.015625 14.40625 51.78125 6.484375 
Q 45.5625 -1.421875 35.59375 -1.421875 
Q 29.59375 -1.421875 25.265625 0.953125 
Q 20.953125 3.328125 18.109375 8.203125 
L 18.109375 0 
L 9.078125 0 
L 9.078125 75.984375 
L 18.109375 75.984375 
z
" id="DejaVuSans-98"/>
     <path d="M 9.421875 54.6875 
L 18.40625 54.6875 
L 18.40625 -0.984375 
Q 18.40625 -11.421875 14.421875 -16.109375 
Q 10.453125 -20.796875 1.609375 -20.796875 
L -1.8125 -20.796875 
L -1.8125 -13.1875 
L 0.59375 -13.1875 
Q 5.71875 -13.1875 7.5625 -10.8125 
Q 9.421875 -8.453125 9.421875 -0.984375 
z
M 9.421875 75.984375 
L 18.40625 75.984375 
L 18.40625 64.59375 
L 9.421875 64.59375 
z
" id="DejaVuSans-106"/>
    </defs>
    <g transform="translate(620.220937 166.8)scale(0.12 -0.12)">
     <use xlink:href="#DejaVuSans-116"/>
     <use x="39.208984" xlink:href="#DejaVuSans-104"/>
     <use x="102.587891" xlink:href="#DejaVuSans-101"/>
     <use x="164.111328" xlink:href="#DejaVuSans-32"/>
     <use x="195.898438" xlink:href="#DejaVuSans-112"/>
     <use x="259.375" xlink:href="#DejaVuSans-111"/>
     <use x="320.556641" xlink:href="#DejaVuSans-112"/>
     <use x="384.033203" xlink:href="#DejaVuSans-117"/>
     <use x="447.412109" xlink:href="#DejaVuSans-108"/>
     <use x="475.195312" xlink:href="#DejaVuSans-97"/>
     <use x="536.474609" xlink:href="#DejaVuSans-114"/>
     <use x="577.587891" xlink:href="#DejaVuSans-32"/>
     <use x="609.375" xlink:href="#DejaVuSans-115"/>
     <use x="661.474609" xlink:href="#DejaVuSans-116"/>
     <use x="700.683594" xlink:href="#DejaVuSans-117"/>
     <use x="764.0625" xlink:href="#DejaVuSans-100"/>
     <use x="827.539062" xlink:href="#DejaVuSans-121"/>
     <use x="886.71875" xlink:href="#DejaVuSans-32"/>
     <use x="918.505859" xlink:href="#DejaVuSans-111"/>
     <use x="979.6875" xlink:href="#DejaVuSans-98"/>
     <use x="1043.164062" xlink:href="#DejaVuSans-106"/>
     <use x="1070.947266" xlink:href="#DejaVuSans-101"/>
     <use x="1132.470703" xlink:href="#DejaVuSans-99"/>
     <use x="1187.451172" xlink:href="#DejaVuSans-116"/>
     <use x="1226.660156" xlink:href="#DejaVuSans-115"/>
     <use x="1278.759766" xlink:href="#DejaVuSans-32"/>
     <use x="1310.546875" xlink:href="#DejaVuSans-105"/>
     <use x="1338.330078" xlink:href="#DejaVuSans-110"/>
     <use x="1401.708984" xlink:href="#DejaVuSans-32"/>
     <use x="1433.496094" xlink:href="#DejaVuSans-114"/>
     <use x="1472.359375" xlink:href="#DejaVuSans-101"/>
     <use x="1533.882812" xlink:href="#DejaVuSans-102"/>
     <use x="1569.087891" xlink:href="#DejaVuSans-101"/>
     <use x="1630.611328" xlink:href="#DejaVuSans-114"/>
     <use x="1669.474609" xlink:href="#DejaVuSans-101"/>
     <use x="1730.998047" xlink:href="#DejaVuSans-110"/>
     <use x="1794.376953" xlink:href="#DejaVuSans-99"/>
     <use x="1849.357422" xlink:href="#DejaVuSans-101"/>
     <use x="1910.880859" xlink:href="#DejaVuSans-115"/>
    </g>
   </g>
   <g id="legend_1">
    <g id="patch_17">
     <path d="M 201.4 400.971875 
L 375.373438 400.971875 
Q 377.373438 400.971875 377.373438 398.971875 
L 377.373438 179.8 
Q 377.373438 177.8 375.373438 177.8 
L 201.4 177.8 
Q 199.4 177.8 199.4 179.8 
L 199.4 398.971875 
Q 199.4 400.971875 201.4 400.971875 
z
" style="fill:#ffffff;opacity:0.8;stroke:#cccccc;stroke-linejoin:miter;"/>
    </g>
    <g id="patch_18">
     <path d="M 203.4 189.398438 
L 223.4 189.398438 
L 223.4 182.398438 
L 203.4 182.398438 
z
" style="fill:#1f77b4;"/>
    </g>
    <g id="text_33">
     <!-- ACE2 -->
     <g transform="translate(231.4 189.398438)scale(0.1 -0.1)">
      <use xlink:href="#DejaVuSans-65"/>
      <use x="66.658203" xlink:href="#DejaVuSans-67"/>
      <use x="136.482422" xlink:href="#DejaVuSans-69"/>
      <use x="199.666016" xlink:href="#DejaVuSans-50"/>
     </g>
    </g>
    <g id="patch_19">
     <path d="M 203.4 204.076562 
L 223.4 204.076562 
L 223.4 197.076562 
L 203.4 197.076562 
z
" style="fill:#ff7f0e;"/>
    </g>
    <g id="text_34">
     <!-- Bat SARS-like Coronaviruses -->
     <g transform="translate(231.4 204.076562)scale(0.1 -0.1)">
      <use xlink:href="#DejaVuSans-66"/>
      <use x="68.603516" xlink:href="#DejaVuSans-97"/>
      <use x="129.882812" xlink:href="#DejaVuSans-116"/>
      <use x="169.091797" xlink:href="#DejaVuSans-32"/>
      <use x="200.878906" xlink:href="#DejaVuSans-83"/>
      <use x="266.230469" xlink:href="#DejaVuSans-65"/>
      <use x="334.638672" xlink:href="#DejaVuSans-82"/>
      <use x="404.121094" xlink:href="#DejaVuSans-83"/>
      <use x="467.597656" xlink:href="#DejaVuSans-45"/>
      <use x="503.681641" xlink:href="#DejaVuSans-108"/>
      <use x="531.464844" xlink:href="#DejaVuSans-105"/>
      <use x="559.248047" xlink:href="#DejaVuSans-107"/>
      <use x="613.533203" xlink:href="#DejaVuSans-101"/>
      <use x="675.056641" xlink:href="#DejaVuSans-32"/>
      <use x="706.84375" xlink:href="#DejaVuSans-67"/>
      <use x="776.667969" xlink:href="#DejaVuSans-111"/>
      <use x="837.849609" xlink:href="#DejaVuSans-114"/>
      <use x="876.712891" xlink:href="#DejaVuSans-111"/>
      <use x="937.894531" xlink:href="#DejaVuSans-110"/>
      <use x="1001.273438" xlink:href="#DejaVuSans-97"/>
      <use x="1062.552734" xlink:href="#DejaVuSans-118"/>
      <use x="1121.732422" xlink:href="#DejaVuSans-105"/>
      <use x="1149.515625" xlink:href="#DejaVuSans-114"/>
      <use x="1190.628906" xlink:href="#DejaVuSans-117"/>
      <use x="1254.007812" xlink:href="#DejaVuSans-115"/>
      <use x="1306.107422" xlink:href="#DejaVuSans-101"/>
      <use x="1367.630859" xlink:href="#DejaVuSans-115"/>
     </g>
    </g>
    <g id="patch_20">
     <path d="M 203.4 218.754688 
L 223.4 218.754688 
L 223.4 211.754688 
L 203.4 211.754688 
z
" style="fill:#2ca02c;"/>
    </g>
    <g id="text_35">
     <!-- Bat coronavirus -->
     <g transform="translate(231.4 218.754688)scale(0.1 -0.1)">
      <use xlink:href="#DejaVuSans-66"/>
      <use x="68.603516" xlink:href="#DejaVuSans-97"/>
      <use x="129.882812" xlink:href="#DejaVuSans-116"/>
      <use x="169.091797" xlink:href="#DejaVuSans-32"/>
      <use x="200.878906" xlink:href="#DejaVuSans-99"/>
      <use x="255.859375" xlink:href="#DejaVuSans-111"/>
      <use x="317.041016" xlink:href="#DejaVuSans-114"/>
      <use x="355.904297" xlink:href="#DejaVuSans-111"/>
      <use x="417.085938" xlink:href="#DejaVuSans-110"/>
      <use x="480.464844" xlink:href="#DejaVuSans-97"/>
      <use x="541.744141" xlink:href="#DejaVuSans-118"/>
      <use x="600.923828" xlink:href="#DejaVuSans-105"/>
      <use x="628.707031" xlink:href="#DejaVuSans-114"/>
      <use x="669.820312" xlink:href="#DejaVuSans-117"/>
      <use x="733.199219" xlink:href="#DejaVuSans-115"/>
     </g>
    </g>
    <g id="patch_21">
     <path d="M 203.4 233.432812 
L 223.4 233.432812 
L 223.4 226.432812 
L 203.4 226.432812 
z
" style="fill:#d62728;"/>
    </g>
    <g id="text_36">
     <!-- Bat-SL-CoVZC45 -->
     <g transform="translate(231.4 233.432812)scale(0.1 -0.1)">
      <use xlink:href="#DejaVuSans-66"/>
      <use x="68.603516" xlink:href="#DejaVuSans-97"/>
      <use x="129.882812" xlink:href="#DejaVuSans-116"/>
      <use x="169.091797" xlink:href="#DejaVuSans-45"/>
      <use x="205.175781" xlink:href="#DejaVuSans-83"/>
      <use x="268.652344" xlink:href="#DejaVuSans-76"/>
      <use x="322.615234" xlink:href="#DejaVuSans-45"/>
      <use x="358.699219" xlink:href="#DejaVuSans-67"/>
      <use x="428.523438" xlink:href="#DejaVuSans-111"/>
      <use x="489.705078" xlink:href="#DejaVuSans-86"/>
      <use x="558.113281" xlink:href="#DejaVuSans-90"/>
      <use x="626.619141" xlink:href="#DejaVuSans-67"/>
      <use x="696.443359" xlink:href="#DejaVuSans-52"/>
      <use x="760.066406" xlink:href="#DejaVuSans-53"/>
     </g>
    </g>
    <g id="patch_22">
     <path d="M 203.4 248.110938 
L 223.4 248.110938 
L 223.4 241.110938 
L 203.4 241.110938 
z
" style="fill:#9467bd;"/>
    </g>
    <g id="text_37">
     <!-- Beta coronavirus -->
     <g transform="translate(231.4 248.110938)scale(0.1 -0.1)">
      <use xlink:href="#DejaVuSans-66"/>
      <use x="68.603516" xlink:href="#DejaVuSans-101"/>
      <use x="130.126953" xlink:href="#DejaVuSans-116"/>
      <use x="169.335938" xlink:href="#DejaVuSans-97"/>
      <use x="230.615234" xlink:href="#DejaVuSans-32"/>
      <use x="262.402344" xlink:href="#DejaVuSans-99"/>
      <use x="317.382812" xlink:href="#DejaVuSans-111"/>
      <use x="378.564453" xlink:href="#DejaVuSans-114"/>
      <use x="417.427734" xlink:href="#DejaVuSans-111"/>
      <use x="478.609375" xlink:href="#DejaVuSans-110"/>
      <use x="541.988281" xlink:href="#DejaVuSans-97"/>
      <use x="603.267578" xlink:href="#DejaVuSans-118"/>
      <use x="662.447266" xlink:href="#DejaVuSans-105"/>
      <use x="690.230469" xlink:href="#DejaVuSans-114"/>
      <use x="731.34375" xlink:href="#DejaVuSans-117"/>
      <use x="794.722656" xlink:href="#DejaVuSans-115"/>
     </g>
    </g>
    <g id="patch_23">
     <path d="M 203.4 262.789062 
L 223.4 262.789062 
L 223.4 255.789062 
L 203.4 255.789062 
z
" style="fill:#8c564b;"/>
    </g>
    <g id="text_38">
     <!-- E -->
     <g transform="translate(231.4 262.789062)scale(0.1 -0.1)">
      <use xlink:href="#DejaVuSans-69"/>
     </g>
    </g>
    <g id="patch_24">
     <path d="M 203.4 277.467187 
L 223.4 277.467187 
L 223.4 270.467187 
L 203.4 270.467187 
z
" style="fill:#e377c2;"/>
    </g>
    <g id="text_39">
     <!-- MERS-CoV -->
     <g transform="translate(231.4 277.467187)scale(0.1 -0.1)">
      <use xlink:href="#DejaVuSans-77"/>
      <use x="86.279297" xlink:href="#DejaVuSans-69"/>
      <use x="149.462891" xlink:href="#DejaVuSans-82"/>
      <use x="218.945312" xlink:href="#DejaVuSans-83"/>
      <use x="282.421875" xlink:href="#DejaVuSans-45"/>
      <use x="318.505859" xlink:href="#DejaVuSans-67"/>
      <use x="388.330078" xlink:href="#DejaVuSans-111"/>
      <use x="449.511719" xlink:href="#DejaVuSans-86"/>
     </g>
    </g>
    <g id="patch_25">
     <path d="M 203.4 292.145313 
L 223.4 292.145313 
L 223.4 285.145313 
L 203.4 285.145313 
z
" style="fill:#7f7f7f;"/>
    </g>
    <g id="text_40">
     <!-- Mpro -->
     <g transform="translate(231.4 292.145313)scale(0.1 -0.1)">
      <use xlink:href="#DejaVuSans-77"/>
      <use x="86.279297" xlink:href="#DejaVuSans-112"/>
      <use x="149.755859" xlink:href="#DejaVuSans-114"/>
      <use x="188.619141" xlink:href="#DejaVuSans-111"/>
     </g>
    </g>
    <g id="patch_26">
     <path d="M 203.4 306.823437 
L 223.4 306.823437 
L 223.4 299.823437 
L 203.4 299.823437 
z
" style="fill:#bcbd22;"/>
    </g>
    <g id="text_41">
     <!-- N -->
     <g transform="translate(231.4 306.823437)scale(0.1 -0.1)">
      <use xlink:href="#DejaVuSans-78"/>
     </g>
    </g>
    <g id="patch_27">
     <path d="M 203.4 321.501563 
L 223.4 321.501563 
L 223.4 314.501563 
L 203.4 314.501563 
z
" style="fill:#17becf;"/>
    </g>
    <g id="text_42">
     <!-- Nsp3 -->
     <g transform="translate(231.4 321.501563)scale(0.1 -0.1)">
      <use xlink:href="#DejaVuSans-78"/>
      <use x="74.804688" xlink:href="#DejaVuSans-115"/>
      <use x="126.904297" xlink:href="#DejaVuSans-112"/>
      <use x="190.380859" xlink:href="#DejaVuSans-51"/>
     </g>
    </g>
    <g id="patch_28">
     <path d="M 203.4 336.179688 
L 223.4 336.179688 
L 223.4 329.179688 
L 203.4 329.179688 
z
" style="fill:#1f77b4;"/>
    </g>
    <g id="text_43">
     <!-- SARS-CoV -->
     <g transform="translate(231.4 336.179688)scale(0.1 -0.1)">
      <use xlink:href="#DejaVuSans-83"/>
      <use x="65.351562" xlink:href="#DejaVuSans-65"/>
      <use x="133.759766" xlink:href="#DejaVuSans-82"/>
      <use x="203.242188" xlink:href="#DejaVuSans-83"/>
      <use x="266.71875" xlink:href="#DejaVuSans-45"/>
      <use x="302.802734" xlink:href="#DejaVuSans-67"/>
      <use x="372.626953" xlink:href="#DejaVuSans-111"/>
      <use x="433.808594" xlink:href="#DejaVuSans-86"/>
     </g>
    </g>
    <g id="patch_29">
     <path d="M 203.4 350.857812 
L 223.4 350.857812 
L 223.4 343.857812 
L 203.4 343.857812 
z
" style="fill:#ff7f0e;"/>
    </g>
    <g id="text_44">
     <!-- SARS-CoV-2 -->
     <g transform="translate(231.4 350.857812)scale(0.1 -0.1)">
      <use xlink:href="#DejaVuSans-83"/>
      <use x="65.351562" xlink:href="#DejaVuSans-65"/>
      <use x="133.759766" xlink:href="#DejaVuSans-82"/>
      <use x="203.242188" xlink:href="#DejaVuSans-83"/>
      <use x="266.71875" xlink:href="#DejaVuSans-45"/>
      <use x="302.802734" xlink:href="#DejaVuSans-67"/>
      <use x="372.626953" xlink:href="#DejaVuSans-111"/>
      <use x="433.808594" xlink:href="#DejaVuSans-86"/>
      <use x="496.341797" xlink:href="#DejaVuSans-45"/>
      <use x="532.425781" xlink:href="#DejaVuSans-50"/>
     </g>
    </g>
    <g id="patch_30">
     <path d="M 203.4 365.535938 
L 223.4 365.535938 
L 223.4 358.535938 
L 203.4 358.535938 
z
" style="fill:#2ca02c;"/>
    </g>
    <g id="text_45">
     <!-- Spike -->
     <g transform="translate(231.4 365.535938)scale(0.1 -0.1)">
      <use xlink:href="#DejaVuSans-83"/>
      <use x="63.476562" xlink:href="#DejaVuSans-112"/>
      <use x="126.953125" xlink:href="#DejaVuSans-105"/>
      <use x="154.736328" xlink:href="#DejaVuSans-107"/>
      <use x="209.021484" xlink:href="#DejaVuSans-101"/>
     </g>
    </g>
    <g id="patch_31">
     <path d="M 203.4 380.214062 
L 223.4 380.214062 
L 223.4 373.214062 
L 203.4 373.214062 
z
" style="fill:#d62728;"/>
    </g>
    <g id="text_46">
     <!-- pneumonia -->
     <g transform="translate(231.4 380.214062)scale(0.1 -0.1)">
      <use xlink:href="#DejaVuSans-112"/>
      <use x="63.476562" xlink:href="#DejaVuSans-110"/>
      <use x="126.855469" xlink:href="#DejaVuSans-101"/>
      <use x="188.378906" xlink:href="#DejaVuSans-117"/>
      <use x="251.757812" xlink:href="#DejaVuSans-109"/>
      <use x="349.169922" xlink:href="#DejaVuSans-111"/>
      <use x="410.351562" xlink:href="#DejaVuSans-110"/>
      <use x="473.730469" xlink:href="#DejaVuSans-105"/>
      <use x="501.513672" xlink:href="#DejaVuSans-97"/>
     </g>
    </g>
    <g id="patch_32">
     <path d="M 203.4 394.892187 
L 223.4 394.892187 
L 223.4 387.892187 
L 203.4 387.892187 
z
" style="fill:#9467bd;"/>
    </g>
    <g id="text_47">
     <!-- others -->
     <g transform="translate(231.4 394.892187)scale(0.1 -0.1)">
      <use xlink:href="#DejaVuSans-111"/>
      <use x="61.181641" xlink:href="#DejaVuSans-116"/>
      <use x="100.390625" xlink:href="#DejaVuSans-104"/>
      <use x="163.769531" xlink:href="#DejaVuSans-101"/>
      <use x="225.292969" xlink:href="#DejaVuSans-114"/>
      <use x="266.40625" xlink:href="#DejaVuSans-115"/>
     </g>
    </g>
   </g>
  </g>
 </g>
</svg>
